<?xml version="1.0" encoding="UTF-8" standalone="no"?>
<!-- Created with Inkscape (http://www.inkscape.org/) -->

<svg
   xmlns:dc="http://purl.org/dc/elements/1.1/"
   xmlns:cc="http://creativecommons.org/ns#"
   xmlns:rdf="http://www.w3.org/1999/02/22-rdf-syntax-ns#"
   xmlns:svg="http://www.w3.org/2000/svg"
   xmlns="http://www.w3.org/2000/svg"
   xmlns:sodipodi="http://sodipodi.sourceforge.net/DTD/sodipodi-0.dtd"
   xmlns:inkscape="http://www.inkscape.org/namespaces/inkscape"
   version="1.1"
   id="svg815"
   width="356"
   height="392"
   viewBox="0 0 356 392"
   sodipodi:docname="Icon10.svg"
   inkscape:version="0.92.3 (2405546, 2018-03-11)">
  <metadata
     id="metadata821">
    <rdf:RDF>
      <cc:Work
         rdf:about="">
        <dc:format>image/svg+xml</dc:format>
        <dc:type
           rdf:resource="http://purl.org/dc/dcmitype/StillImage" />
        <dc:title></dc:title>
      </cc:Work>
    </rdf:RDF>
  </metadata>
  <defs
     id="defs819" />
  <sodipodi:namedview
     pagecolor="#ffffff"
     bordercolor="#666666"
     borderopacity="1"
     objecttolerance="10"
     gridtolerance="10"
     guidetolerance="10"
     inkscape:pageopacity="0"
     inkscape:pageshadow="2"
     inkscape:window-width="1920"
     inkscape:window-height="1001"
     id="namedview817"
     showgrid="false"
     inkscape:zoom="2.3570602"
     inkscape:cx="111.13801"
     inkscape:cy="204.24849"
     inkscape:window-x="-9"
     inkscape:window-y="-9"
     inkscape:window-maximized="1"
     inkscape:current-layer="svg815" />
  <g
     id="g5273"
     transform="translate(4.242573,-3.3940584)">
    <path
       inkscape:connector-curvature="0"
       id="path836"
       d="m 257.07617,35.859375 c -0.22106,0.0014 -0.34177,0.08744 -0.44531,0.162109 -0.10354,0.07467 -0.19135,0.160616 -0.28516,0.261719 -0.18761,0.202206 -0.39241,0.467677 -0.62695,0.804688 -0.46908,0.67402 -1.05249,1.625342 -1.72852,2.798828 -1.35205,2.346972 -3.06525,5.57722 -4.86914,9.15039 -3.60776,7.146341 -7.57118,15.654507 -9.6914,21.179688 -0.22754,0.592974 -0.24467,1.188044 0,1.673828 0.24466,0.485784 0.7786,0.802734 1.37109,0.802734 0.31623,0 0.39642,-0.13138 0.49805,-0.224609 0.10162,-0.09323 0.19591,-0.201117 0.30078,-0.333984 0.20974,-0.265736 0.45686,-0.630255 0.75,-1.089844 0.58628,-0.919179 1.34544,-2.218272 2.2207,-3.783203 1.75052,-3.129862 3.96354,-7.318052 6.13867,-11.583985 2.17514,-4.265932 4.31109,-8.607415 5.90625,-12.039062 0.79759,-1.715824 1.46158,-3.204013 1.92774,-4.347656 0.23308,-0.571822 0.4159,-1.057513 0.54492,-1.449219 0.12902,-0.391706 0.21484,-0.655581 0.21484,-0.951172 0,-0.291317 -0.18393,-0.497406 -0.34179,-0.613281 -0.15786,-0.115875 -0.3267,-0.185301 -0.51758,-0.244141 -0.38175,-0.11768 -0.8504,-0.177045 -1.36719,-0.173828 z m 0.0996,1.011719 c 0.38618,0.0069 0.75108,0.04888 0.97266,0.117187 0.0645,0.01988 0.0785,0.03256 0.11718,0.05078 -0.0175,0.09337 -0.0369,0.217008 -0.12695,0.490235 -0.11719,0.355779 -0.29563,0.825891 -0.52344,1.384765 -0.4556,1.11775 -1.11266,2.5955 -1.90625,4.302735 -1.58717,3.41447 -3.71984,7.748455 -5.89062,12.005859 -2.17078,4.257405 -4.38088,8.439346 -6.12109,11.550782 -0.87011,1.555717 -1.62269,2.845775 -2.18946,3.734374 -0.28338,0.4443 -0.52197,0.788719 -0.69336,1.00586 -0.0504,0.06387 -0.0776,0.08783 -0.11328,0.126953 -0.17246,-0.02852 -0.3108,-0.06788 -0.37695,-0.199219 -0.0836,-0.166061 -0.11291,-0.471161 0.0391,-0.867187 2.09376,-5.456239 6.05378,-13.961696 9.65039,-21.085938 1.79831,-3.562121 3.5074,-6.781845 4.84375,-9.101562 0.66818,-1.159859 1.24459,-2.095751 1.6836,-2.726563 0.2195,-0.315406 0.40566,-0.555603 0.5371,-0.697265 0.0462,-0.04979 0.0714,-0.06921 0.0977,-0.0918 z m -70.5,6.43164 c -1.70835,0.0065 -3.51025,0.284733 -5.28906,0.789063 -3.55761,1.00866 -7.03126,2.932816 -9.46094,5.537109 -2.36735,2.537482 -3.46327,6.416475 -3.40234,10.363282 0.0609,3.946806 1.28243,7.984493 3.70312,10.861328 l 3.23828,3.847656 -3.89843,11.533203 c -5.00065,14.793865 -13.25382,30.654905 -21.98243,42.253905 -8.24963,10.96252 -26.23782,28.33302 -36.10546,34.88477 -3.38891,2.2501 -5.3078,3.41418 -6.76563,3.82031 -1.45783,0.40613 -2.52141,0.13525 -4.49414,-0.60938 -1.24805,-0.47108 -2.21117,-0.9091 -3.480469,-0.85351 -1.269297,0.0556 -2.746969,0.59498 -5.101562,1.92187 -4.709187,2.65379 -13.018881,8.52693 -30.226563,20.59961 l -21.818359,15.30664 0.617187,5.15235 c 0.324369,2.7106 1.010994,5.88389 1.63086,7.28515 0.320922,0.72549 0.331996,1.17845 0.162109,1.50977 -0.169887,0.33132 -0.605998,0.65887 -1.453125,0.92773 -0.848713,0.26938 -1.987369,0.97614 -3.27539,1.91797 -1.288022,0.94183 -2.691147,2.11692 -3.916016,3.31446 -3.488699,3.41085 -4.533203,5.72104 -4.533203,10.03906 0,3.71658 0.627231,6.97141 2.601562,11.2793 1.974332,4.30788 5.285593,9.6865 10.675781,17.7832 7.095219,10.65785 11.624604,16.56843 16.181641,19.01172 2.278519,1.22164 4.571871,1.5386 7.070313,1.10351 2.498441,-0.43508 5.207862,-1.59473 8.455078,-3.29687 3.197538,-1.67611 5.387705,-2.66662 6.972656,-3.09375 1.584951,-0.42713 2.511482,-0.32108 3.417969,0.16406 1.997081,1.06881 4.599792,1.50038 7.11914,1.38086 2.519349,-0.11952 4.960833,-0.78421 6.632813,-2.04883 0.708668,-0.53601 1.519868,-1.0347 2.238278,-1.39453 0.68764,-0.34442 1.29097,-0.52429 1.53516,-0.54687 0.0339,0.027 0.0695,0.0538 0.12891,0.11523 0.1588,0.16414 0.38228,0.43871 0.64062,0.80078 0.51668,0.72414 1.18836,1.79994 1.95703,3.13086 1.53735,2.66185 3.46747,6.35424 5.41016,10.41992 4.76834,9.97927 11.97738,23.57943 18.35547,34.96094 3.18904,5.69075 6.17036,10.82563 8.53515,14.67773 1.1824,1.92605 2.20975,3.5302 3.03711,4.72852 0.82737,1.19832 1.39385,1.96236 1.89844,2.3418 2.22824,1.67555 5.6509,2.16556 9.59961,1.69726 3.94871,-0.4683 8.44371,-1.91374 12.8418,-4.2539 5.76616,-3.0681 10.66307,-6.03766 14.45117,-8.73829 3.78809,-2.70062 6.46551,-5.1151 7.81445,-7.17382 1.10267,-1.6829 1.82698,-3.29049 1.78125,-5.24414 -0.0457,-1.95366 -0.83847,-4.19526 -2.60351,-7.23829 -3.53009,-6.08606 -11.00209,-15.45149 -24.77539,-32.18554 l -25.77149,-31.31055 5.05078,-4.68945 c 3.50496,-3.25522 5.55469,-6.30136 5.55469,-8.77539 0,-0.68198 0.11501,-1.2032 0.54883,-1.82617 0.43382,-0.62298 1.21933,-1.34228 2.56836,-2.25196 2.69805,-1.81936 7.60776,-4.38824 16.25195,-8.72265 10.78383,-5.40729 25.25076,-11.68486 32.04102,-13.91602 13.31066,-4.37364 27.09098,-7.07248 38.51562,-7.89258 11.42464,-0.82009 20.51273,0.32331 24.25781,3.26953 4.86169,3.82466 10.79374,4.14297 15.49414,1.96094 4.70041,-2.18202 8.1875,-6.87972 8.1875,-12.9707 0,-6.47268 -3.78085,-14.66464 -17.00781,-37.3711 -2.80321,-4.81221 -4.776,-8.51776 -5.93359,-11.13672 -0.5788,-1.30947 -0.95316,-2.34963 -1.125,-3.0957 -0.17184,-0.74607 -0.0817,-1.16099 -0.043,-1.21289 3.97306,-5.32604 6.34482,-8.79434 7.80078,-11.91601 1.45596,-3.12168 1.97509,-5.88486 2.25,-9.68555 0.70857,-9.7959 -2.20292,-16.85825 -9.17969,-22.179689 -6.1959,-4.725837 -17.09522,-5.902781 -24.73437,-2.710937 l -4.75977,1.988281 -3.39648,-5.4375 C 220.12924,77.410019 212.48907,66.177362 206.24414,58.255859 199.99921,50.334357 195.19023,45.712716 191.4043,44.144531 c -1.40485,-0.581907 -3.02017,-0.848277 -4.72852,-0.841797 z m 0,1.007813 c 1.6027,-0.0057 3.09464,0.239604 4.3457,0.757812 3.4092,1.412137 8.23163,5.934669 14.4375,13.806641 6.20588,7.871972 13.83339,19.081578 23.06055,33.857422 l 3.8457,6.158203 5.54297,-2.316406 c 7.23835,-3.024377 17.94263,-1.841039 23.74414,2.583984 6.74835,5.147217 9.4793,11.743077 8.78711,21.312497 -0.27097,3.74623 -0.75845,6.33283 -2.1582,9.33399 -1.39975,3.00116 -3.73286,6.42842 -7.69531,11.74023 -0.38661,0.51826 -0.32752,1.18327 -0.13086,2.03711 0.19666,0.85384 0.5904,1.93334 1.18359,3.27539 1.18639,2.68411 3.1736,6.40777 5.98633,11.23633 13.21562,22.68698 16.87109,30.78951 16.87109,36.86719 0,5.71148 -3.23238,10.03256 -7.60937,12.06445 -4.37699,2.03189 -9.87974,1.758 -14.45313,-1.83984 -4.24174,-3.33695 -13.4238,-4.30961 -24.94726,-3.48243 -11.52347,0.82719 -25.36865,3.54002 -38.75781,7.93946 -6.91769,2.27304 -21.34924,8.5459 -32.17579,13.97461 -8.64978,4.33722 -13.56193,6.89809 -16.36328,8.78711 -1.40067,0.94451 -2.28445,1.72343 -2.83203,2.50976 -0.54758,0.78634 -0.72656,1.58342 -0.72656,2.39649 0,1.88122 -1.82186,4.87165 -5.23438,8.04101 l -5.74023,5.33203 26.36914,32.03907 c 13.76961,16.72956 21.23814,26.11063 24.68359,32.05078 1.72273,2.97007 2.42703,5.06054 2.4668,6.75976 0.0398,1.69923 -0.56281,3.06465 -1.61719,4.67383 -1.20898,1.84512 -3.82023,4.24109 -7.55859,6.90625 -3.73836,2.66517 -8.60456,5.61722 -14.3418,8.66992 -4.29911,2.28751 -8.69112,3.69421 -12.48828,4.14453 -3.79716,0.45033 -6.97819,-0.0751 -8.88086,-1.50585 -0.20617,-0.15504 -0.86756,-0.93596 -1.67773,-2.10938 -0.81018,-1.17342 -1.83108,-2.76676 -3.00781,-4.68359 -2.35348,-3.83366 -5.32912,-8.96178 -8.51368,-14.64453 -6.36911,-11.36551 -13.57454,-24.95805 -18.32617,-34.90235 -1.9522,-4.0856 -3.89095,-7.79359 -5.44726,-10.48828 -0.77816,-1.34735 -1.45995,-2.44035 -2.00977,-3.21094 -0.27491,-0.38529 -0.51502,-0.68929 -0.73437,-0.91601 -0.10968,-0.11337 -0.21231,-0.20743 -0.33008,-0.28711 -0.11777,-0.0797 -0.25436,-0.16503 -0.48047,-0.15821 -0.58167,0.0176 -1.24126,0.28792 -2.01953,0.67774 -0.77828,0.38982 -1.63133,0.91298 -2.394534,1.49023 -1.426499,1.07895 -3.708023,1.73718 -6.078125,1.84961 -2.370102,0.11244 -4.824567,-0.31474 -6.597656,-1.26367 -1.124714,-0.60193 -2.41957,-0.71501 -4.152344,-0.24805 -1.732774,0.46697 -3.956079,1.48415 -7.175781,3.17188 -3.209464,1.68235 -5.84125,2.79506 -8.162109,3.19922 -2.32086,0.40416 -4.325649,0.126 -6.425782,-1 -4.200265,-2.252 -8.742394,-8.05076 -15.822265,-18.68555 -5.381522,-8.08367 -8.66855,-13.43727 -10.597656,-17.64648 -1.929107,-4.20921 -2.511719,-7.25495 -2.511719,-10.86133 0,-4.17121 0.82506,-5.99289 4.232422,-9.32422 1.18566,-1.1592 2.559709,-2.31087 3.80664,-3.22266 1.246931,-0.91178 2.401395,-1.58521 2.988281,-1.77148 0.972494,-0.30865 1.688437,-0.74198 2.039063,-1.42578 0.350626,-0.6838 0.249902,-1.49956 -0.134766,-2.36914 -0.493514,-1.11564 -1.240036,-4.37061 -1.554687,-7 l -0.544922,-4.55664 21.328125,-14.96485 c 17.208504,-12.07326 25.547876,-17.9565 30.144531,-20.54687 2.298328,-1.29519 3.638187,-1.75043 4.654297,-1.79492 1.01611,-0.0445 1.805467,0.30916 3.082027,0.79101 2.01479,0.7605 3.41285,1.11347 5.11719,0.63867 1.70434,-0.4748 3.64968,-1.69426 7.04883,-3.95117 10.07727,-6.69093 27.98832,-24.0037 36.35156,-35.11719 8.80967,-11.70672 17.09285,-27.63073 22.13086,-42.535152 l 4.07813,-12.066407 -3.59961,-4.279297 c -2.22867,-2.648625 -3.41087,-6.483225 -3.46875,-10.232422 -0.0579,-3.749196 1.01039,-7.389111 3.13281,-9.664062 2.27162,-2.434876 5.60442,-4.293986 9.00391,-5.257812 1.69974,-0.481914 3.41292,-0.738431 5.01562,-0.744141 z m -1.00781,1.830078 c -1.49389,0.08259 -2.98372,0.797364 -5.59375,2.128906 -3.14365,1.603767 -5.31123,3.22146 -6.69141,5.232422 -1.38018,2.010962 -1.93554,4.385792 -1.93554,7.386719 0,2.69131 1.20848,5.573242 2.84179,7.732422 0.81666,1.07959 1.74124,1.97843 2.70899,2.572265 0.96775,0.593835 2.00431,0.893106 2.99023,0.660157 0.0532,-0.01257 0.49917,0.07785 1.12305,0.521484 0.62387,0.44363 1.42778,1.165962 2.36719,2.130859 1.87881,1.929794 4.30967,4.829461 7.13671,8.47461 5.6541,7.290298 12.89849,17.567771 20.60743,29.146481 15.41787,23.15743 32.70128,51.52641 42.89257,71.64453 2.30156,4.54339 4.39311,8.83511 5.90821,12.08399 0.75755,1.62444 1.37182,2.99006 1.79297,3.99023 0.21057,0.50009 0.37372,0.90809 0.48047,1.20703 0.10674,0.29895 0.14062,0.55917 0.14062,0.45704 0,0.78945 0.59731,1.38632 1.36328,1.91015 0.76597,0.52384 1.77854,0.98425 2.89453,1.35742 2.23198,0.74635 4.84775,1.15312 6.70703,0.67383 1.68624,-0.43465 4.11563,-1.92475 5.66797,-3.41601 1.2574,-1.20792 2.14488,-2.52988 2.55078,-4.13477 0.40591,-1.60489 0.33117,-3.46707 -0.23437,-5.76758 -1.13108,-4.60102 -4.21987,-11.01584 -9.66797,-20.97851 -9.90183,-18.107 -25.03514,-43.60803 -39.04883,-66.25 -14.01369,-22.641971 -26.87504,-42.386388 -32.34765,-49.097659 -2.62274,-3.216339 -6.82494,-6.804751 -9.57422,-8.109375 -2.244,-1.064846 -3.5862,-1.639235 -5.08008,-1.556641 z m 0.0547,0.998047 c 1.2023,-0.06647 2.36974,0.40372 4.59765,1.460937 2.45032,1.162756 6.70852,4.751882 9.22657,7.839844 5.34931,6.560059 18.26705,26.360072 32.27343,48.990237 14.00639,22.63016 29.1358,48.12759 39.02149,66.20508 5.43746,9.9432 8.49311,16.34051 9.57422,20.73828 0.54055,2.19888 0.58812,3.88259 0.23437,5.28125 -0.35375,1.39865 -1.10716,2.53782 -2.27344,3.6582 -1.40486,1.34959 -3.8778,2.82276 -5.22461,3.16992 -1.48424,0.38261 -4.03854,0.0506 -6.14062,-0.65234 -1.05104,-0.35146 -1.99616,-0.79158 -2.64649,-1.23633 -0.65033,-0.44475 -0.92773,-0.88347 -0.92773,-1.08398 0,-0.29828 -0.0818,-0.46416 -0.19922,-0.79297 -0.11741,-0.32882 -0.28517,-0.74959 -0.5,-1.25977 -0.42965,-1.02036 -1.04779,-2.39203 -1.80859,-4.02344 -1.5216,-3.26281 -3.61799,-7.56143 -5.92383,-12.11328 -10.22595,-20.18653 -27.51362,-48.56204 -42.94922,-71.74609 -7.7178,-11.592027 -14.97088,-21.88396 -20.65039,-29.207032 -2.83976,-3.661537 -5.284,-6.579367 -7.21094,-8.558594 -0.96347,-0.989614 -1.79489,-1.743873 -2.5039,-2.248047 -0.70902,-0.504175 -1.29372,-0.832831 -1.9336,-0.681641 -0.64285,0.151891 -1.41255,-0.03162 -2.23633,-0.537109 -0.82377,-0.505488 -1.67593,-1.32262 -2.43359,-2.324219 -1.51532,-2.003198 -2.64062,-4.744166 -2.64062,-7.128906 0,-2.879333 0.51488,-5.008437 1.75976,-6.822266 1.24488,-1.813828 3.25567,-3.341793 6.32227,-4.90625 2.59867,-1.325747 3.99106,-1.955011 5.19336,-2.021484 z m -6.08594,26.167969 -4.70313,13.949218 c -11.07153,32.838711 -32.01797,61.132821 -57.71093,78.000001 -4.54601,2.98441 -6.9989,4.65693 -8.21289,6.01953 -0.607,0.6813 -0.91799,1.33847 -0.90625,2.00977 0.0117,0.6713 0.31458,1.26693 0.71875,1.91406 0.95024,1.52147 8.93039,14.0373 17.75976,27.85742 4.41349,6.90819 8.51628,13.4251 11.57031,18.35742 1.52702,2.46616 2.792,4.53742 3.70118,6.06055 0.45459,0.76157 0.82016,1.38674 1.08398,1.85351 0.26382,0.46678 0.43603,0.80736 0.45898,0.86719 0.26598,0.69314 0.47267,1.23404 0.80274,1.65039 0.33007,0.41635 0.90088,0.65087 1.46289,0.53711 1.12402,-0.22751 2.43197,-1.28199 5.07617,-3.29883 1.32112,-1.00766 4.16348,-2.63315 7.8457,-4.52929 3.68222,-1.89614 8.2204,-4.0789 13.01172,-6.27149 9.58265,-4.38516 20.18605,-8.8131 26.96289,-11.07226 15.72199,-5.24116 30.03072,-7.68164 45.01953,-7.68164 3.81465,0 7.28176,-0.0826 9.80469,-0.21875 1.26147,-0.0681 2.28617,-0.15 3.01172,-0.24219 0.36278,-0.0461 0.64758,-0.0933 0.87305,-0.15234 0.11273,-0.0295 0.20787,-0.058 0.3164,-0.11524 0.0543,-0.0286 0.11433,-0.0636 0.1836,-0.13672 0.0693,-0.0731 0.15625,-0.21013 0.15625,-0.38086 0,-0.18699 -0.0381,-0.25119 -0.0781,-0.36718 -0.04,-0.116 -0.0937,-0.25036 -0.16211,-0.41016 -0.13682,-0.3196 -0.3338,-0.74016 -0.58593,-1.25781 -0.50427,-1.0353 -1.23139,-2.45667 -2.13672,-4.1836 -1.81067,-3.45385 -4.33033,-8.125 -7.17578,-13.31054 -5.69091,-10.37109 -12.68112,-22.80157 -17.88868,-31.67579 C 217.9213,126.67117 207.14964,110.45274 191.9082,89.875 Z m 0.33594,2.134765 11.13281,15.027344 c 15.22598,20.55687 25.96795,36.73453 37.92773,57.11523 5.19893,8.85953 12.18812,21.28858 17.875,31.65235 2.84345,5.18188 5.36238,9.84684 7.16797,13.29101 0.9028,1.72209 1.62677,3.1393 2.12305,4.15821 0.24814,0.50945 0.43908,0.92002 0.56445,1.21289 0.016,0.0375 0.0213,0.0544 0.0352,0.0879 -0.1486,0.0298 -0.289,0.0591 -0.53125,0.0898 -0.68055,0.0865 -1.68963,0.16701 -2.9375,0.23438 -2.49575,0.13472 -5.95204,0.21875 -9.75196,0.21875 -15.09746,0 -29.52948,2.4631 -45.33593,7.73242 -6.85153,2.28406 -17.45773,6.71604 -27.0625,11.11133 -4.80239,2.19764 -9.35284,4.38476 -13.05469,6.29101 -3.70185,1.90625 -6.53848,3.51621 -7.99219,4.625 -2.64003,2.01366 -4.09189,2.99629 -4.66992,3.11328 -0.28902,0.0585 -0.30485,0.0438 -0.48047,-0.17773 -0.17562,-0.22153 -0.39116,-0.70608 -0.65234,-1.38672 -0.0879,-0.22911 -0.25103,-0.52345 -0.52149,-1.00195 -0.27045,-0.47851 -0.64066,-1.10941 -1.09765,-1.875 -0.91399,-1.53119 -2.18022,-3.60328 -3.70899,-6.07227 -3.05753,-4.93797 -7.1624,-11.45747 -11.57812,-18.36914 -8.82905,-13.81962 -16.82914,-26.37206 -17.75195,-27.84961 -0.3729,-0.59705 -0.56196,-1.03583 -0.56836,-1.40234 -0.006,-0.36652 0.13793,-0.75075 0.65234,-1.32813 1.02881,-1.15474 3.47681,-2.86796 8.01562,-5.84765 25.91324,-17.01179 46.97341,-45.48196 58.11133,-78.517581 z m 118.45117,4.525391 c -0.51764,0 -1.06071,0.224703 -1.8125,0.572265 -0.75179,0.347563 -1.66325,0.837236 -2.6836,1.427735 -2.04068,1.180997 -4.51046,2.765966 -6.90039,4.40625 -2.38992,1.640284 -4.69833,3.335404 -6.42187,4.738281 -0.86177,0.701439 -1.57577,1.32777 -2.08985,1.851563 -0.25703,0.261896 -0.46499,0.49599 -0.62109,0.716797 -0.1561,0.220806 -0.29101,0.410913 -0.29101,0.732421 0,0.190019 0.0826,0.423884 0.24414,0.570313 0.16156,0.146429 0.34916,0.197164 0.51953,0.214844 0.34074,0.03536 0.68555,-0.03857 1.12109,-0.169922 0.87108,-0.262702 2.07328,-0.7974 3.61328,-1.587891 3.08,-1.580982 7.47752,-4.184743 12.83203,-7.621094 2.35017,-1.508256 3.81763,-2.707665 4.40625,-3.759765 0.14716,-0.263025 0.24382,-0.530589 0.24414,-0.81836 3.3e-4,-0.28777 -0.12829,-0.588132 -0.33984,-0.787109 -0.42309,-0.397955 -1.02114,-0.486328 -1.82031,-0.486328 z m 0,1 c 0.69003,0 1.07194,0.153917 1.13672,0.214844 0.0324,0.03046 0.0235,0.01297 0.0234,0.05859 -5e-5,0.04563 -0.0237,0.162924 -0.11718,0.330078 -0.37408,0.668618 -1.77555,1.93425 -4.07227,3.408204 -5.33812,3.425829 -9.72279,6.016427 -12.75,7.570312 -1.51361,0.776943 -2.69447,1.295045 -3.44531,1.521484 -0.19927,0.0601 -0.25837,0.05072 -0.38672,0.07031 0.10708,-0.137187 0.22797,-0.284964 0.41602,-0.476563 0.46827,-0.477132 1.16288,-1.089615 2.00781,-1.777343 1.68985,-1.375457 3.98458,-3.060897 6.35742,-4.689453 2.37284,-1.628557 4.82659,-3.203504 6.83398,-4.365235 1.0037,-0.580865 1.89695,-1.058107 2.60352,-1.384765 0.70657,-0.326659 1.27553,-0.480469 1.39258,-0.480469 z m -52.00977,15.955078 c -1.73499,0.12162 -3.55322,0.39798 -5.2207,0.767578 -1.66748,0.369598 -3.17595,0.833289 -4.30274,1.355469 -0.56339,0.26109 -1.03174,0.532953 -1.38867,0.84375 -0.35693,0.310798 -0.63672,0.689708 -0.63672,1.162108 0,0.20279 0.0424,0.26741 0.0879,0.39063 0.0455,0.12321 0.10765,0.26663 0.18555,0.4375 0.1558,0.34173 0.37792,0.79116 0.66406,1.34375 0.57229,1.10516 1.39509,2.61753 2.41016,4.43359 2.03015,3.63212 4.8288,8.47527 7.90625,13.6582 5.31968,8.9592 8.12992,13.63045 9.98633,15.875 0.9282,1.12228 1.64342,1.70076 2.44141,1.77344 0.79798,0.0727 1.41742,-0.41166 2.03515,-0.9707 0.76812,-0.69514 1.71162,-1.95745 2.69531,-3.48633 0.9837,-1.52889 1.98707,-3.3124 2.78125,-5.00195 2.55427,-5.43396 3.383,-10.54661 2.45118,-15.23243 -0.93183,-4.68581 -3.62323,-8.91843 -7.99805,-12.5996 -2.41729,-2.034024 -6.52281,-4.053191 -9.37305,-4.587896 -1.33625,-0.250682 -2.98961,-0.283729 -4.72461,-0.162109 z m 0.082,1.005859 c 1.6809,-0.116349 3.25615,-0.08661 4.45703,0.138672 2.55925,0.480116 6.6827,2.493514 8.91407,4.371094 4.24117,3.56872 6.77945,7.59076 7.66211,12.0293 0.88265,4.43853 0.11022,9.32008 -2.37696,14.61132 -0.77152,1.64135 -1.75749,3.39575 -2.71679,4.88672 -0.95931,1.49098 -1.9112,2.72933 -2.52539,3.28516 -0.57758,0.5227 -0.93934,0.74705 -1.27149,0.7168 -0.33214,-0.0303 -0.89618,-0.36716 -1.76367,-1.41602 -1.73497,-2.09772 -4.57813,-6.78912 -9.89648,-15.74609 -3.07365,-5.17653 -5.8686,-10.01563 -7.89258,-13.63672 -1.012,-1.81055 -1.83096,-3.31596 -2.39453,-4.4043 -0.28179,-0.54417 -0.49912,-0.98415 -0.64258,-1.29883 -0.0717,-0.15733 -0.12501,-0.28449 -0.15625,-0.36914 -0.0312,-0.0846 -0.0274,-0.16703 -0.0274,-0.0449 0,-0.0468 0.05,-0.19471 0.29297,-0.40625 0.24294,-0.21154 0.64403,-0.45689 1.1543,-0.693358 1.02053,-0.472941 2.47919,-0.926421 4.09766,-1.285156 1.61847,-0.358736 3.40504,-0.621932 5.08593,-0.738282 z m 35.0293,34.486326 c -0.30551,0.0636 -0.64671,0.30235 -0.73437,0.64453 -0.0877,0.34219 0.0178,0.63966 0.17187,0.94336 0.15405,0.30371 0.38306,0.62807 0.69336,1.00196 0.63059,0.75981 1.91147,1.63181 3.6582,2.66406 1.74673,1.03224 3.94227,2.18333 6.30664,3.32031 4.72875,2.27397 10.1183,4.48664 13.92188,5.54297 1.70554,0.47366 3.29443,0.91953 4.48047,1.25391 0.59301,0.16718 1.08453,0.30635 1.43945,0.4082 0.35492,0.10185 0.62827,0.18618 0.59375,0.17383 0.17366,0.0621 0.41152,0.009 0.53125,-0.0781 0.11973,-0.0872 0.17129,-0.17565 0.21289,-0.2539 0.0832,-0.15651 0.11973,-0.30497 0.15625,-0.48438 0.0731,-0.35881 0.11133,-0.82232 0.11133,-1.34766 0,-0.54536 -0.35261,-0.90112 -0.79688,-1.28124 -0.44426,-0.38013 -1.04825,-0.77001 -1.78515,-1.16993 -1.4738,-0.79983 -3.47801,-1.63279 -5.69531,-2.32812 -4.3229,-1.35564 -10.82215,-3.95292 -14.35352,-5.73438 -3.73233,-1.88284 -6.3501,-2.97164 -7.89648,-3.24609 -0.3866,-0.0686 -0.71012,-0.0929 -1.01563,-0.0293 z m 0.26953,0.98242 c 0.10471,-0.0133 0.28461,-0.0195 0.57031,0.0312 1.27203,0.22576 3.92116,1.2878 7.6211,3.1543 3.62169,1.82703 10.10877,4.41797 14.50586,5.79688 2.1636,0.67849 4.12297,1.49509 5.51758,2.25195 0.6973,0.37843 1.25374,0.74482 1.61132,1.05078 0.35758,0.30596 0.44727,0.565 0.44727,0.52148 0,0.45502 -0.0371,0.84454 -0.0859,1.10157 -0.0883,-0.0253 -0.1107,-0.034 -0.24414,-0.0723 -0.35756,-0.1026 -0.84944,-0.24271 -1.44336,-0.41015 -1.18783,-0.33489 -2.77775,-0.77995 -4.48437,-1.25391 -3.6901,-1.02481 -9.06656,-3.22742 -13.75586,-5.48242 -2.34466,-1.1275 -4.52149,-2.26821 -6.23242,-3.2793 -1.71094,-1.01109 -2.97574,-1.93444 -3.39649,-2.44141 -0.28104,-0.33863 -0.47036,-0.61935 -0.57031,-0.8164 -0.0629,-0.12405 -0.0539,-0.11954 -0.0606,-0.15235 z m -96.38086,0.4043 c -1.48589,-0.18453 -2.80408,0.47657 -3.67968,1.73828 -1.75121,2.52343 -2.08163,7.31215 -0.66993,13.6211 0.48875,2.18421 0.99235,4.32384 1.41016,6.01562 0.41781,1.69178 0.72775,2.88186 0.91016,3.36133 -0.04,-0.10503 0.008,-0.15932 -0.0293,-0.0977 -0.0374,0.0617 -0.14195,0.18745 -0.30078,0.33008 -0.31766,0.28526 -0.84718,0.65513 -1.50977,1.05469 -1.32516,0.79911 -3.18673,1.73028 -5.10156,2.57422 -1.91483,0.84394 -3.8889,1.60341 -5.4375,2.07031 -0.7743,0.23345 -1.44427,0.39301 -1.92578,0.45508 -0.24076,0.031 -0.43492,0.0353 -0.55274,0.0234 -0.11781,-0.0119 -0.13507,-0.0511 -0.0801,0.004 0.0824,0.0824 10e-4,-0.004 -0.0488,-0.14844 -0.0503,-0.14472 -0.11105,-0.35988 -0.17383,-0.62695 -0.12556,-0.53414 -0.26302,-1.27777 -0.40234,-2.16797 -0.27866,-1.7804 -0.56234,-4.14611 -0.78125,-6.65429 -0.44401,-5.08712 -1.28636,-8.53081 -2.73633,-10.45704 -0.72499,-0.96311 -1.64828,-1.54387 -2.69727,-1.63476 -1.04898,-0.0909 -2.16901,0.28298 -3.36719,1.0332 -1.79524,1.12408 -2.78809,3.08055 -2.98242,5.87305 -0.19433,2.7925 0.35704,6.4676 1.60742,11.29297 0.57065,2.20219 0.99478,4.57793 1.2168,6.61523 0.22202,2.03731 0.21811,3.7751 0.0234,4.51953 -0.59495,2.27513 -0.11667,4.2185 1.43555,5.35352 0.41065,0.30028 1.33433,1.49354 2.26562,3.05859 0.9313,1.56506 1.93677,3.52719 2.78125,5.49024 1.36707,3.17782 2.26054,5.02016 3.36133,6.13672 1.10079,1.11655 2.40894,1.38086 4.21094,1.38085 2.53388,0 4.37802,-0.86197 5.13086,-2.33593 0.75283,-1.47397 0.28725,-3.38721 -1.34375,-5.18946 -1.09625,-1.21134 -2.50589,-4.25008 -2.95704,-6.50585 -0.20165,-1.00828 -0.32159,-1.76671 -0.30078,-2.35157 0.0208,-0.58485 0.15351,-0.99017 0.50977,-1.43554 0.71251,-0.89075 2.46931,-1.88353 5.88281,-3.61329 1.96163,-0.99403 3.85493,-1.76934 5.30078,-2.21289 0.72293,-0.22177 1.33721,-0.35882 1.76563,-0.40234 0.21421,-0.0218 0.38203,-0.0188 0.47656,-0.004 0.0945,0.0149 0.0915,0.043 0.043,-0.0137 0.0615,0.0718 0.24235,0.37037 0.43359,0.7793 0.19125,0.40893 0.41239,0.94129 0.64453,1.55273 0.46429,1.2229 0.97519,2.76403 1.41602,4.31641 0.92684,3.2639 2.05702,5.63923 3.48633,7.15039 1.4293,1.51116 3.21247,2.11338 5.16015,1.73828 1.00113,-0.1928 1.82498,-0.63012 2.38282,-1.32812 0.55783,-0.698 0.83323,-1.62322 0.86718,-2.72852 0.0679,-2.21059 -0.78416,-5.20935 -2.49804,-9.19336 -1.00239,-2.33012 -1.62396,-4.12629 -1.86133,-5.32617 -0.11869,-0.59994 -0.13381,-1.0517 -0.0879,-1.30664 0.0459,-0.25494 0.08,-0.26106 0.14648,-0.2832 0.70705,-0.23569 1.24285,-0.68195 1.54102,-1.25196 0.29817,-0.57001 0.35867,-1.23892 0.23242,-1.91406 -0.25251,-1.35029 -1.22808,-2.76973 -2.79492,-3.86719 -1.41836,-0.99345 -2.96511,-4.16557 -3.78906,-7.48047 -0.41198,-1.65744 -0.66288,-3.35214 -0.69727,-4.82617 -0.0344,-1.47402 0.16313,-2.72785 0.55859,-3.4668 0.53019,-0.99066 0.72853,-1.94946 0.46094,-2.9082 -0.26759,-0.95874 -0.94486,-1.86868 -2.01562,-2.93945 -1.73613,-1.73612 -3.35396,-2.68266 -4.83985,-2.86719 z m -0.12304,0.99219 c 1.149,0.14269 2.61298,0.93915 4.25586,2.58203 1.01696,1.01697 1.56823,1.81378 1.75976,2.5 0.19153,0.68622 0.0801,1.31231 -0.37891,2.16992 -0.54058,1.01011 -0.71434,2.39184 -0.67773,3.96094 0.0366,1.5691 0.29921,3.32563 0.72656,5.04492 0.8547,3.43858 2.28435,6.725 4.18555,8.05664 1.3908,0.97416 2.19882,2.22765 2.38672,3.23242 0.0939,0.50239 0.0404,0.93075 -0.13477,1.26563 -0.17517,0.33487 -0.46999,0.60002 -0.97265,0.76758 -0.44505,0.14834 -0.73046,0.58833 -0.81446,1.05468 -0.084,0.46636 -0.0403,1.01207 0.0918,1.67969 0.26415,1.33524 0.90543,3.16261 1.92187,5.52539 1.68832,3.92458 2.47685,6.85293 2.41797,8.76953 -0.0294,0.95831 -0.25857,1.645 -0.64843,2.13282 -0.38987,0.48781 -0.95876,0.81042 -1.79102,0.9707 -1.6596,0.31961 -2.99703,-0.12483 -4.24414,-1.44336 -1.24711,-1.31853 -2.34726,-3.55733 -3.25,-6.73633 -0.44875,-1.58026 -0.96657,-3.1426 -1.44336,-4.39844 -0.23839,-0.62791 -0.46685,-1.17851 -0.67383,-1.62109 -0.20698,-0.44258 -0.37243,-0.76352 -0.58008,-1.00586 -0.18313,-0.21372 -0.42089,-0.2886 -0.64648,-0.32422 -0.22559,-0.0356 -0.46531,-0.0312 -0.73437,-0.004 -0.53813,0.0547 -1.19521,0.20769 -1.95704,0.4414 -1.52366,0.46742 -3.45535,1.26299 -5.46093,2.2793 -3.42206,1.73409 -5.24955,2.67946 -6.20899,3.87891 -0.47972,0.59972 -0.70397,1.27872 -0.73047,2.02343 -0.0265,0.74471 0.11545,1.56159 0.32032,2.58594 0.49259,2.463 1.85283,5.49292 3.19726,6.97852 1.4646,1.61836 1.71233,3.04836 1.19336,4.06445 -0.51897,1.01609 -1.93142,1.79101 -4.24023,1.79101 -1.71873,0 -2.60568,-0.17684 -3.5,-1.08398 -0.89433,-0.90713 -1.79581,-2.67218 -3.1543,-5.83008 -0.86267,-2.00534 -1.8826,-3.9968 -2.83984,-5.60547 -0.95725,-1.60866 -1.78761,-2.80884 -2.53516,-3.35547 -1.21064,-0.88524 -1.58835,-2.25967 -1.05664,-4.29296 0.27764,-1.0617 0.22976,-2.79047 0.002,-4.88086 -0.22781,-2.0904 -0.65997,-4.50343 -1.24414,-6.75782 -1.2371,-4.77411 -1.75702,-8.37384 -1.57617,-10.97265 0.18085,-2.59882 1.00966,-4.15203 2.51367,-5.09375 1.08581,-0.67987 2.00345,-0.94767 2.75195,-0.88281 0.74851,0.0649 1.38125,0.43705 1.98438,1.23828 1.20625,1.60245 2.10157,4.92894 2.53906,9.9414 0.22068,2.52838 0.50553,4.91105 0.78906,6.72266 0.14177,0.9058 0.28267,1.66855 0.41797,2.24414 0.0677,0.28779 0.13243,0.52669 0.20117,0.72461 0.0687,0.19792 0.10141,0.34164 0.28711,0.52734 0.20764,0.20764 0.45009,0.26119 0.6875,0.28516 0.23742,0.024 0.49306,0.01 0.78125,-0.0273 0.57638,-0.0743 1.2808,-0.24749 2.08594,-0.49024 1.61028,-0.48549 3.60879,-1.25651 5.55274,-2.11328 1.94394,-0.85677 3.82777,-1.79755 5.21289,-2.63281 0.69256,-0.41763 1.25832,-0.80342 1.66211,-1.16602 0.20189,-0.1813 0.36664,-0.35385 0.48828,-0.55469 0.12163,-0.20083 0.21902,-0.48397 0.10742,-0.77734 -0.10606,-0.27879 -0.4575,-1.56151 -0.87305,-3.24414 -0.41555,-1.68263 -0.9171,-3.81878 -1.40429,-5.99609 -1.37951,-6.16507 -0.91535,-10.77006 0.51562,-12.83203 0.71549,-1.03099 1.58537,-1.4591 2.73438,-1.31641 z m -0.36524,2.34961 c -0.25938,0.0843 -0.4921,0.2804 -0.63672,0.51953 -0.14461,0.23913 -0.22263,0.51549 -0.27539,0.84375 -0.21103,1.31302 -0.004,3.59715 0.43555,7.8125 0.53524,5.13271 1.0858,10.74212 1.22266,12.43359 0.0956,1.18177 -0.13027,1.89278 -1.38282,2.92188 -1.25254,1.02909 -3.56256,2.25537 -7.42578,4.05859 -3.38436,1.57972 -5.81015,2.55666 -7.47851,2.99414 -0.83419,0.21874 -1.47682,0.29877 -1.9336,0.27149 -0.45678,-0.0273 -0.70806,-0.14361 -0.88281,-0.31836 -0.0654,-0.0654 -0.31449,-0.50684 -0.52148,-1.15039 -0.207,-0.64355 -0.41782,-1.50321 -0.61524,-2.50391 -0.39483,-2.0014 -0.7369,-4.57312 -0.92578,-7.21289 -0.23507,-3.28542 -0.56489,-5.78298 -1.01367,-7.55859 -0.2244,-0.88781 -0.47668,-1.59635 -0.78125,-2.14453 -0.30458,-0.54819 -0.67083,-0.95826 -1.15625,-1.14454 -0.93409,-0.35844 -1.83783,-0.34751 -2.45899,0.20508 -0.62115,0.55259 -0.87655,1.46378 -0.94531,2.69336 -0.13752,2.45917 0.52419,6.3723 1.93945,12.00781 0.968,3.85451 1.53913,6.67235 1.73828,8.6211 0.19916,1.94875 -0.0451,2.97481 -0.34374,3.27343 -0.27485,0.27485 -0.48631,0.51523 -0.64063,0.75 -0.15432,0.23478 -0.27973,0.47768 -0.23633,0.79883 0.0434,0.32116 0.32825,0.57407 0.58203,0.66602 0.25379,0.0919 0.52114,0.11328 0.84766,0.11328 -0.0794,0 0.21848,0.0936 0.55469,0.44336 0.33621,0.34978 0.75061,0.88757 1.19531,1.55859 0.88941,1.34206 1.90635,3.21904 2.81836,5.28125 0.93103,2.10522 1.94012,4.01831 2.83008,5.42188 0.44498,0.70178 0.85793,1.27436 1.23242,1.69336 0.18724,0.2095 0.36525,0.38195 0.54883,0.51562 0.18357,0.13367 0.37657,0.25 0.65429,0.25 0.44477,0 0.84876,-0.0541 1.1836,-0.16406 0.16741,-0.055 0.31763,-0.12168 0.46093,-0.23242 0.14331,-0.11075 0.31055,-0.30674 0.31055,-0.58008 0,-0.18611 -0.0343,-0.23272 -0.0684,-0.33789 -0.0341,-0.10517 -0.0798,-0.2273 -0.13672,-0.37109 -0.11375,-0.28759 -0.27419,-0.66004 -0.4707,-1.09766 -0.39302,-0.87525 -0.93225,-2.01023 -1.52539,-3.19922 -1.14522,-2.29561 -2.22498,-5.91292 -2.36133,-7.80859 -0.11292,-1.56983 0.0231,-2.37331 1.19141,-3.4668 1.16833,-1.09349 3.45908,-2.39219 7.53711,-4.47461 2.53262,-1.29327 4.9809,-2.37871 6.86914,-3.08203 0.94411,-0.35166 1.75012,-0.60753 2.33984,-0.74414 0.29486,-0.0683 0.53724,-0.10633 0.69922,-0.11524 0.16199,-0.009 0.23914,0.0403 0.1582,-0.01 -0.0217,-0.0134 0.25732,0.27628 0.51953,0.73437 0.26222,0.4581 0.57267,1.09133 0.90235,1.84375 0.65935,1.50485 1.40033,3.48798 2.05469,5.56836 0.66443,2.11241 1.41019,4.11877 2.08398,5.66407 0.3369,0.77265 0.65618,1.43036 0.94336,1.93554 0.28718,0.50518 0.47588,0.8506 0.85352,1.08399 0.74456,0.46016 1.37592,0.71913 1.98828,0.48047 0.30618,-0.11934 0.53762,-0.38726 0.65429,-0.6836 0.11667,-0.29633 0.15119,-0.62605 0.14063,-1.0039 -0.0423,-1.51142 -0.81731,-3.90883 -2.2832,-7.31641 -0.82999,-1.92935 -1.51099,-3.97764 -1.93555,-5.70313 -0.42456,-1.72548 -0.54782,-3.18992 -0.42383,-3.66406 0.20071,-0.76753 0.24731,-1.47172 0.12695,-2.05078 -0.0602,-0.28953 -0.16166,-0.55483 -0.34765,-0.77539 -0.186,-0.22056 -0.489,-0.38086 -0.80078,-0.38086 0.0612,0 -0.15072,-0.0702 -0.40625,-0.43555 -0.25554,-0.36533 -0.55281,-0.93842 -0.85157,-1.65039 -0.59751,-1.42393 -1.21496,-3.40215 -1.74023,-5.51172 -0.52527,-2.10956 -0.95913,-4.3551 -1.20313,-6.32421 -0.24399,-1.96912 -0.28408,-3.68335 -0.0781,-4.6211 0.33231,-1.51297 0.43231,-2.62141 0.1582,-3.52539 -0.27411,-0.90397 -0.97374,-1.51328 -1.93164,-1.88086 -0.55385,-0.21253 -1.03787,-0.38336 -1.55664,-0.21484 z m 0.3086,0.95117 c 0.0699,-0.0227 0.39141,0.006 0.88867,0.19727 0.79364,0.30454 1.15078,0.63214 1.33398,1.23632 0.18321,0.60418 0.14011,1.57436 -0.17773,3.02149 -0.26184,1.19213 -0.18789,2.93826 0.0625,4.95898 0.25039,2.02073 0.69044,4.29612 1.22461,6.44141 0.53416,2.14529 1.15922,4.15724 1.78906,5.6582 0.31492,0.75048 0.62942,1.37231 0.95508,1.83789 0.32565,0.46558 0.66429,0.86133 1.22461,0.86133 0.0213,0 1.6e-4,-0.0161 0.0352,0.0254 0.035,0.0415 0.0958,0.15585 0.13281,0.33399 0.0741,0.35627 0.0552,0.94213 -0.11523,1.59375 -0.24712,0.945 -0.0181,2.37015 0.42188,4.1582 0.43995,1.78805 1.13547,3.87697 1.98828,5.85937 1.44714,3.36398 2.16835,5.77357 2.20117,6.94727 0.008,0.29342 -0.028,0.50201 -0.0703,0.60937 -0.0423,0.10737 -0.0573,0.10721 -0.0879,0.11914 -0.0612,0.0239 -0.45839,-0.004 -1.09961,-0.40039 0.029,0.0179 -0.2503,-0.27011 -0.50977,-0.72656 -0.25947,-0.45644 -0.56699,-1.08865 -0.89453,-1.83984 -0.65508,-1.50239 -1.39437,-3.48377 -2.04883,-5.56445 -0.66452,-2.11272 -1.41339,-4.1216 -2.0918,-5.66993 -0.3392,-0.77416 -0.65892,-1.4323 -0.94921,-1.93945 -0.29029,-0.50715 -0.48614,-0.85675 -0.86329,-1.08984 -0.25863,-0.15985 -0.4845,-0.15067 -0.73828,-0.13672 -0.25377,0.0139 -0.53905,0.0622 -0.86914,0.13867 -0.66017,0.15293 -1.49354,0.42019 -2.46289,0.78125 -1.9387,0.72212 -4.4136,1.82015 -6.97656,3.12891 -4.09107,2.08908 -6.41814,3.37555 -7.76563,4.63671 -1.34748,1.26117 -1.62513,2.58234 -1.5039,4.26758 0.15573,2.16509 1.24627,5.74486 2.46289,8.1836 0.58775,1.17817 1.12252,2.30407 1.50781,3.16211 0.19265,0.42901 0.34882,0.79099 0.45313,1.05468 0.0325,0.0822 0.0505,0.13275 0.0723,0.19336 -0.0115,0.004 -0.009,0.006 -0.0215,0.01 -0.19243,0.0632 -0.51587,0.11523 -0.8711,0.11523 0.0777,0 0.0287,0.0106 -0.0664,-0.0586 -0.0951,-0.0692 -0.23372,-0.1975 -0.39063,-0.37305 -0.3138,-0.3511 -0.70636,-0.88993 -1.13281,-1.5625 -0.85291,-1.34512 -1.84839,-3.22581 -2.76172,-5.29101 -0.93235,-2.10822 -1.96623,-4.0211 -2.89844,-5.42774 -0.4661,-0.70332 -0.90457,-1.28084 -1.30859,-1.70117 -0.40402,-0.42033 -0.73627,-0.75 -1.27539,-0.75 -0.18232,0 -0.25664,-0.0208 -0.34766,-0.0371 0.0928,-0.1391 0.25889,-0.33896 0.50196,-0.58203 0.74592,-0.74593 0.84164,-2.04059 0.63281,-4.08399 -0.20883,-2.04339 -0.79233,-4.88808 -1.76563,-8.76367 -1.40613,-5.59912 -2.03202,-9.49276 -1.9082,-11.70703 0.0619,-1.10713 0.32492,-1.74911 0.61133,-2.0039 0.28641,-0.2548 0.67908,-0.30711 1.43359,-0.0176 0.17074,0.0655 0.40365,0.26723 0.64258,0.69726 0.23893,0.43004 0.47435,1.06676 0.68555,1.90235 0.42239,1.67118 0.75151,4.13024 0.98437,7.38476 0.1917,2.67913 0.53829,5.28263 0.94336,7.33594 0.20254,1.02666 0.41914,1.91449 0.64453,2.61523 0.22539,0.70075 0.41446,1.20157 0.76563,1.55274 0.37549,0.37549 0.90744,0.57418 1.52929,0.61133 0.62186,0.0371 1.35327,-0.0701 2.24805,-0.30469 1.78956,-0.46926 4.24189,-1.46461 7.64844,-3.05469 3.88094,-1.81149 6.22555,-3.03394 7.63672,-4.19336 1.41116,-1.15942 1.85895,-2.37859 1.74609,-3.77343 -0.13992,-1.72937 -0.69088,-7.32015 -1.22656,-12.45704 -0.43868,-4.20682 -0.60472,-6.54678 -0.44336,-7.55078 0.0403,-0.251 0.10112,-0.40936 0.14648,-0.48437 0.0454,-0.075 0.0529,-0.0746 0.0879,-0.0859 z m -46.97266,17.86523 c -0.1986,-0.0284 -0.35254,0.008 -0.51563,0.0586 -0.65234,0.201 -1.53043,0.75758 -2.76562,1.67383 -1.23519,0.91625 -2.77967,2.19057 -4.56055,3.80078 -1.67073,1.51061 -3.04545,2.88179 -3.92969,3.89648 -0.44211,0.50735 -0.76052,0.91556 -0.95117,1.25977 -0.0953,0.1721 -0.18248,0.31222 -0.17383,0.57812 0.004,0.13295 0.067,0.32579 0.21094,0.44727 0.14399,0.12147 0.3052,0.14648 0.42188,0.14648 0.53439,0 1.07346,-0.23494 1.65625,-0.56836 0.58278,-0.33342 1.18265,-0.78226 1.68945,-1.28906 0.65375,-0.65374 1.05236,-0.84189 1.21484,-0.82812 0.0812,0.007 0.17732,0.0422 0.33789,0.19531 0.16058,0.15315 0.36214,0.41746 0.5918,0.78906 0.27413,0.44354 0.58737,0.81081 1.02149,1.01758 0.43412,0.20677 0.94649,0.21001 1.47851,0.0527 1.06405,-0.31456 2.35677,-1.20102 4.40039,-2.75976 1.39286,-1.06239 2.55896,-2.1854 3.33789,-3.17188 0.38947,-0.49324 0.68457,-0.95038 0.86133,-1.3789 0.17676,-0.42852 0.27178,-0.88362 0.0176,-1.29493 -0.22138,-0.35819 -0.65124,-0.54201 -1.05078,-0.54101 -0.39954,0.001 -0.80669,0.12819 -1.25196,0.33789 -0.89052,0.41939 -1.93491,1.19265 -3.05078,2.26172 -1.28109,1.22736 -2.35332,2.11351 -3.14648,2.66406 -0.32117,0.22293 -0.55827,0.35121 -0.77539,0.46289 0.0369,-0.0679 0.0285,-0.0774 0.0781,-0.15625 0.39327,-0.62555 1.16913,-1.59138 2.36524,-2.83984 1.44694,-1.51028 2.32763,-2.57075 2.75976,-3.29492 0.10804,-0.18105 0.18915,-0.34128 0.24414,-0.50391 0.055,-0.16263 0.10304,-0.33745 0.0293,-0.56836 -0.0737,-0.23091 -0.34633,-0.41889 -0.54492,-0.44727 z m -0.9961,1.49219 c -0.42426,0.60837 -1.01274,1.37614 -2.21484,2.63086 -1.22363,1.2772 -2.03045,2.2667 -2.49023,2.99805 -0.22989,0.36567 -0.37934,0.6562 -0.43946,0.96094 -0.0301,0.15236 -0.0418,0.32374 0.0371,0.51367 0.0789,0.18993 0.28167,0.35261 0.46289,0.40039 0.36246,0.0956 0.6201,-0.0214 0.93946,-0.16602 0.31935,-0.14459 0.68603,-0.36223 1.11523,-0.66015 0.85841,-0.59584 1.95916,-1.51013 3.26758,-2.76368 1.06268,-1.01811 2.05638,-1.7349 2.78516,-2.07812 0.36438,-0.17161 0.66328,-0.24372 0.83007,-0.24414 0.16679,-4.2e-4 0.16465,0.0136 0.19727,0.0664 -0.0159,-0.0258 0.0263,0.0977 -0.0937,0.38867 -0.12001,0.29093 -0.36601,0.6939 -0.71875,1.14062 -0.70548,0.89346 -1.82624,1.97718 -3.16211,2.9961 -2.02218,1.54238 -3.3186,2.37174 -4.07617,2.5957 -0.37879,0.11198 -0.58467,0.0901 -0.76563,0.004 -0.18095,-0.0862 -0.37946,-0.28127 -0.60156,-0.64063 -0.25257,-0.40868 -0.48709,-0.73567 -0.75195,-0.98828 -0.26486,-0.25261 -0.58487,-0.43642 -0.94336,-0.4668 -0.71699,-0.0608 -1.29632,0.40765 -2.00586,1.11719 -0.43468,0.43469 -0.97865,0.8418 -1.48047,1.12891 -0.10328,0.0591 -0.13889,0.0425 -0.23828,0.0898 0.12293,-0.15664 0.1609,-0.23808 0.32617,-0.42773 0.83994,-0.96386 2.19632,-2.32119 3.8457,-3.8125 1.76192,-1.59307 3.28687,-2.85049 4.48633,-3.74024 0.82216,-0.60987 1.22526,-0.79317 1.68945,-1.04297 z m -38.326167,12.15039 c -0.221043,0.002 -0.347151,0.0616 -0.529297,0.13477 -0.182145,0.0731 -0.394793,0.17319 -0.644531,0.30078 -0.499475,0.25518 -1.145591,0.6203 -1.927734,1.08398 -1.564287,0.92738 -3.665367,2.24682 -6.125,3.83789 -4.919267,3.18216 -11.275043,7.44642 -17.611329,11.79493 -6.336285,4.3485 -12.652221,8.77946 -17.492187,12.29492 -2.419983,1.75772 -4.469251,3.28704 -5.972656,4.46484 -0.751703,0.58891 -1.366137,1.08958 -1.826172,1.49219 -0.460035,0.4026 -0.750987,0.6611 -0.9375,0.96289 -0.422953,0.68435 -0.390634,1.63214 -0.226563,2.7832 0.164072,1.15107 0.52716,2.48082 1.056641,3.74805 0.687462,1.64533 2.449575,4.77315 4.882813,8.81055 2.433237,4.0374 5.530332,8.95784 8.847656,14.08203 6.634647,10.24838 14.149476,21.30105 19.017578,27.70312 3.355889,4.41336 5.557576,7.09775 7.36914,8.7168 1.811565,1.61905 3.303818,2.16406 4.982422,2.16406 0.819993,0 1.864088,-0.3449 3.300782,-1.00195 1.436693,-0.65705 3.246491,-1.64117 5.476564,-2.97461 4.46014,-2.66688 10.5956,-6.73098 18.67578,-12.35547 8.3858,-5.83723 14.25665,-10.11861 18.08594,-13.22851 1.91464,-1.55496 3.31767,-2.81449 4.27929,-3.84571 0.96163,-1.03122 1.51051,-1.80848 1.6211,-2.57617 0.0727,-0.50495 -0.11117,-0.95964 -0.39258,-1.66992 -0.28141,-0.71029 -0.70211,-1.61049 -1.24609,-2.68164 -1.08797,-2.14231 -2.67042,-4.96782 -4.5918,-8.2461 -3.84276,-6.55655 -9.04541,-14.91749 -14.36524,-23.15429 -5.31982,-8.2368 -10.75477,-16.34737 -15.05859,-22.4043 -2.15191,-3.02846 -4.01961,-5.54335 -5.45703,-7.31055 -0.71871,-0.8836 -1.32814,-1.57832 -1.82422,-2.06836 -0.24804,-0.24501 -0.466363,-0.44017 -0.671874,-0.58593 -0.205512,-0.14577 -0.38261,-0.27486 -0.695313,-0.27149 z m 0.0098,1 c -0.118426,0.001 -0.02551,-0.006 0.107422,0.0879 0.132933,0.0943 0.322067,0.2584 0.546875,0.48047 0.44961,0.44414 1.04594,1.1203 1.75195,1.98828 1.41203,1.73598 3.27303,4.23917 5.41797,7.25782 4.28986,6.03728 9.71944,14.14173 15.0332,22.36914 5.31376,8.22741 10.51263,16.5805 14.34375,23.11718 1.91556,3.26835 3.48892,6.08323 4.56055,8.19336 0.53581,1.05507 0.94711,1.93474 1.20898,2.59571 0.26187,0.66096 0.33065,1.16978 0.33203,1.16015 -0.0481,0.33389 -0.4541,1.06227 -1.36133,2.03516 -0.90722,0.97289 -2.28495,2.21512 -4.17968,3.7539 -3.78947,3.07758 -9.65009,7.35036 -18.02735,13.18165 -8.07081,5.61796 -14.1927,9.67592 -18.61523,12.32031 -2.211263,1.32219 -3.998893,2.28985 -5.380856,2.92187 -1.381963,0.63202 -2.379183,0.91211 -2.884766,0.91211 -1.481271,0 -2.613996,-0.3904 -4.314453,-1.91015 -1.700457,-1.51975 -3.896026,-4.17561 -7.242187,-8.57618 -4.832489,-6.35524 -12.346994,-17.40612 -18.972656,-27.64062 -3.312832,-5.11725 -6.40497,-10.03273 -8.830079,-14.05664 -2.425108,-4.02391 -4.191823,-7.1829 -4.816406,-8.67774 -0.495919,-1.1869 -0.840301,-2.45202 -0.990234,-3.5039 -0.149934,-1.05188 -0.03814,-1.91327 0.08789,-2.11719 0.02129,-0.0344 0.307188,-0.35392 0.744141,-0.73633 0.436953,-0.3824 1.039968,-0.87476 1.783203,-1.45703 1.486469,-1.16454 3.531029,-2.68782 5.945313,-4.4414 4.828566,-3.50718 11.140129,-7.93667 17.470703,-12.28126 6.330573,-4.34458 12.680959,-8.60512 17.58789,-11.77929 2.453466,-1.58709 4.54796,-2.90311 6.091797,-3.81836 0.771919,-0.45763 1.406556,-0.81441 1.873047,-1.05274 0.233246,-0.11916 0.425793,-0.20876 0.5625,-0.26367 0.136708,-0.0549 0.24374,-0.0633 0.166016,-0.0625 z m 173.638667,14.14258 c -0.59264,0 -1.0829,0.37536 -1.39453,0.86328 -0.31163,0.48793 -0.48438,1.11421 -0.48438,1.79492 0,1.88803 0.72195,3.86195 1.67969,5.28907 0.47887,0.71355 1.01481,1.29301 1.60547,1.64843 0.59067,0.35543 1.32143,0.4722 1.91797,0.10352 0.0944,-0.0584 0.10481,-0.0519 0.17187,-0.082 -0.003,0.0188 0.002,0.007 -0.002,0.0273 -0.0415,0.21464 -0.1349,0.52291 -0.28125,0.9043 -0.3238,0.84378 -0.50544,1.45949 -0.25195,2.04101 0.12674,0.29077 0.43842,0.51643 0.74414,0.56641 0.30572,0.05 0.60325,-0.009 0.93359,-0.11914 0.86147,-0.28716 1.33384,-1.16045 1.63672,-2.18164 0.30288,-1.0212 0.4311,-2.26122 0.40625,-3.50391 -0.0248,-1.24268 -0.20208,-2.48199 -0.54492,-3.50195 -0.34284,-1.01996 -0.84448,-1.88436 -1.70703,-2.17187 -0.38646,-0.12882 -0.72641,-0.20047 -1.06836,-0.15626 -0.34196,0.0442 -0.68846,0.27104 -0.84766,0.58594 -0.31839,0.62981 -0.17518,1.37511 0.11133,2.47071 0.17774,0.67968 0.18279,1.15302 0.15234,1.4375 -0.1705,-0.16756 -0.39034,-0.425 -0.56054,-0.89454 -0.20515,-0.56594 -0.33789,-1.27313 -0.33789,-1.94531 0,-0.80613 -0.16391,-1.5426 -0.46094,-2.11914 -0.29703,-0.57653 -0.77416,-1.05664 -1.41797,-1.05664 z m 0,1 c 0.11445,0 0.32657,0.12018 0.5293,0.51367 0.20273,0.39349 0.34961,0.99649 0.34961,1.66211 0,0.79959 0.14848,1.60296 0.39648,2.28711 0.248,0.68415 0.56835,1.26243 1.0918,1.58594 0.25474,0.15744 0.61029,0.24427 0.91601,0.0859 0.30573,-0.15834 0.42968,-0.44887 0.49024,-0.72266 0.12112,-0.54758 0.0435,-1.23244 -0.17969,-2.08594 -0.26817,-1.02544 -0.24098,-1.66179 -0.1875,-1.76758 0.0267,-0.0529 -0.0112,-0.0329 0.082,-0.0449 0.0932,-0.0121 0.3153,0.0101 0.625,0.11328 0.34878,0.11626 0.77934,0.65792 1.07617,1.54102 0.29684,0.8831 0.46902,2.04388 0.49219,3.20312 0.0232,1.15924 -0.10252,2.32199 -0.36328,3.20118 -0.26076,0.87918 -0.66227,1.40435 -0.99609,1.51562 -0.23359,0.0779 -0.38479,0.0844 -0.43946,0.0781 -0.0129,-0.0466 -0.0221,-0.51307 0.26368,-1.25782 0.15937,-0.41533 0.27084,-0.76802 0.33007,-1.07422 0.0592,-0.30619 0.0918,-0.56962 -0.0332,-0.86328 -0.0625,-0.14682 -0.18835,-0.29904 -0.34961,-0.38086 -0.16126,-0.0818 -0.33162,-0.0928 -0.47656,-0.0762 -0.28988,0.0333 -0.53185,0.15691 -0.81836,0.33399 -0.23665,0.14625 -0.479,0.13203 -0.87695,-0.10742 -0.39795,-0.23946 -0.86834,-0.71978 -1.29102,-1.34961 -0.84537,-1.25967 -1.50977,-3.10753 -1.50977,-4.73243 0,-0.50652 0.13804,-0.96129 0.32618,-1.25586 0.18813,-0.29457 0.38711,-0.40234 0.55273,-0.40234 z M 46.599609,220.58789 c -0.608674,0 -1.215557,0.32046 -2.041015,0.77734 -0.825458,0.45689 -1.791958,1.08081 -2.775391,1.77735 -1.966865,1.39307 -3.976405,3.05024 -4.988281,4.30078 -1.512543,1.86929 -1.990405,4.90318 -1.683594,8.33789 0.306811,3.43471 1.425536,7.28643 3.291016,10.79492 2.498986,4.69996 7.11342,11.75141 11.541015,17.94727 2.213798,3.09793 4.379587,5.97897 6.210938,8.24218 1.831351,2.26322 3.280418,3.8863 4.259765,4.57227 2.008515,1.40682 3.668487,2.12987 5.753907,1.96484 2.085419,-0.16502 4.530523,-1.15676 8.335937,-3 l 6.949219,-3.36523 -10.617187,-15.61914 c -5.653969,-8.31804 -13.135828,-19.9458 -16.603516,-25.80078 -1.74443,-2.94537 -3.428616,-5.62193 -4.742188,-7.57031 -0.656785,-0.9742 -1.218867,-1.76463 -1.658203,-2.32422 -0.219668,-0.2798 -0.406785,-0.50081 -0.572265,-0.66797 -0.08274,-0.0836 -0.158069,-0.15359 -0.246094,-0.2168 -0.08803,-0.0632 -0.175903,-0.15039 -0.414063,-0.15039 z m -0.08789,1.03711 c 0.01527,0.0142 0.01887,0.0148 0.03711,0.0332 0.117531,0.11873 0.289789,0.31926 0.496094,0.58203 0.412609,0.52556 0.968363,1.30325 1.617187,2.26563 1.297649,1.92477 2.974937,4.59034 4.710938,7.52148 3.493192,5.89805 10.969807,17.51448 16.636719,25.85157 l 9.964843,14.66211 -5.90625,2.86132 c -3.778675,1.83029 -6.154526,2.75786 -7.980468,2.90235 -1.825943,0.14449 -3.165684,-0.43059 -5.09961,-1.78516 -0.726137,-0.50861 -2.243912,-2.14261 -4.05664,-4.38281 -1.812729,-2.2402 -3.968867,-5.10975 -6.173829,-8.19531 -4.409922,-6.17113 -9.018902,-13.2191 -11.472656,-17.83399 -1.80055,-3.38637 -2.884278,-7.12885 -3.177734,-10.41406 -0.293456,-3.28521 0.230486,-6.0956 1.464844,-7.62109 0.869144,-1.07415 2.86844,-2.75296 4.789062,-4.11329 0.960311,-0.68016 1.904135,-1.2884 2.681641,-1.71875 0.733557,-0.40602 1.320153,-0.59157 1.468749,-0.61523 z m 86.921871,30.53516 -12.7832,8.79882 c -3.41784,2.35286 -6.52571,4.61706 -8.78516,6.375 -1.12972,0.87898 -2.04574,1.63021 -2.6914,2.21094 -0.32283,0.29037 -0.57796,0.53718 -0.76563,0.74805 -0.0938,0.10543 -0.17088,0.20036 -0.23632,0.30273 -0.0654,0.10238 -0.14258,0.19942 -0.14258,0.42774 0,0.17159 0.0333,0.25955 0.0742,0.39453 0.0409,0.13498 0.0966,0.29353 0.16796,0.48047 0.14277,0.37388 0.34725,0.86081 0.60938,1.45703 0.52426,1.19244 1.27635,2.81311 2.19922,4.74805 1.84574,3.86986 4.37451,8.99719 7.10742,14.43359 5.46582,10.87279 11.74719,22.97562 15.05078,28.75195 3.03553,5.30762 7.0645,12.35885 8.95117,15.66797 l 3.58789,6.29297 7.66407,-0.63477 c 5.92743,-0.49154 9.69173,-2.04776 18.13671,-7.47461 l 1.43165,-0.91992 h -0.16602 c 2.45216,-1.64211 4.91952,-3.38114 6.89063,-5.0039 2.33325,-1.92092 4.07988,-3.58165 4.77929,-4.75977 1.02531,-1.72708 1.59739,-2.8433 1.59571,-4.11328 -0.002,-1.26998 -0.56017,-2.53957 -1.5879,-4.63477 h 0.002 c -0.68078,-1.38832 -2.97618,-4.57065 -6.21875,-8.80078 -3.24258,-4.23013 -7.40502,-9.43508 -11.70899,-14.59961 -8.59857,-10.31784 -19.51373,-23.49407 -24.25195,-29.27539 z m -0.1914,1.3457 8.32812,10.16211 c 4.74332,5.78752 15.65765,18.96149 24.25781,29.28125 4.29542,5.15427 8.45145,10.35183 11.6836,14.56836 3.23215,4.21652 5.56972,7.52432 6.11328,8.63281 1.01841,2.07621 1.4831,3.22761 1.48438,4.19336 0.001,0.96575 -0.44442,1.90111 -1.45508,3.60352 -0.51924,0.87462 -2.25619,2.60574 -4.55469,4.49804 -2.2985,1.8923 -5.17583,4.00046 -8.0625,5.85547 -8.40581,5.40167 -11.88493,6.83798 -17.67773,7.31836 l -7.0293,0.58203 -3.27344,-5.74023 c -1.88725,-3.31014 -5.91347,-10.35996 -8.94922,-15.66797 -3.27589,-5.72789 -9.5659,-17.84099 -15.02734,-28.70508 -2.73072,-5.43204 -5.25494,-10.55462 -7.0957,-14.41406 -0.92039,-1.92972 -1.6708,-3.54545 -2.1875,-4.72071 -0.25836,-0.58762 -0.45941,-1.06539 -0.5918,-1.4121 -0.0662,-0.17336 -0.11475,-0.31374 -0.14453,-0.41211 -0.0111,-0.0365 -0.007,-0.0146 -0.0117,-0.0391 0.0255,-0.0351 0.0534,-0.072 0.10742,-0.13281 0.14426,-0.16209 0.37845,-0.39176 0.68555,-0.66797 0.61418,-0.55242 1.52009,-1.29571 2.63867,-2.16601 2.23715,-1.7406 5.33215,-3.99639 8.73633,-6.33985 z m -27.71289,2.44336 c -0.35632,-0.0637 -0.70741,0.003 -1.1211,0.12109 -0.82737,0.23554 -1.88221,0.72834 -3.03906,1.37891 -2.313692,1.30113 -4.992888,3.222 -6.613281,5.00781 -0.628522,0.69268 -1.061955,1.31512 -1.269531,1.86133 -0.103788,0.27311 -0.179291,0.5408 -0.07422,0.85547 0.05254,0.15733 0.173224,0.31759 0.326172,0.41015 0.152949,0.0926 0.318587,0.1211 0.470703,0.1211 0.398517,0 0.801732,-0.13312 1.289063,-0.33594 0.48733,-0.20282 1.043662,-0.48708 1.646484,-0.82812 1.205645,-0.68209 2.596445,-1.59631 3.92383,-2.56055 1.32738,-0.96424 2.5876,-1.97529 3.53125,-2.85547 0.47183,-0.44009 0.86534,-0.84651 1.1543,-1.21289 0.28895,-0.36638 0.51757,-0.65582 0.51757,-1.10547 0,-0.19846 -0.0689,-0.42651 -0.21875,-0.58789 -0.14984,-0.16138 -0.34527,-0.23766 -0.52343,-0.26953 z m -0.35352,1.00976 c -0.0357,0.0737 -0.0444,0.12772 -0.20703,0.33399 -0.23717,0.30071 -0.602,0.68101 -1.05078,1.09961 -0.89756,0.83719 -2.13562,1.83163 -3.4375,2.77734 -1.301879,0.94571 -2.669622,1.84654 -3.828126,2.50196 -0.579252,0.3277 -1.108065,0.59406 -1.539063,0.77343 -0.318301,0.13247 -0.496296,0.15929 -0.667969,0.19141 0.133445,-0.33228 0.489008,-0.88869 1.050782,-1.50781 1.488017,-1.63992 4.131051,-3.55328 6.363286,-4.8086 1.11611,-0.62766 2.13919,-1.09265 2.82226,-1.28711 0.25126,-0.0715 0.37458,-0.0699 0.49414,-0.0742 z m -0.0234,4.26758 c -0.63053,-0.0165 -1.37542,0.24237 -2.35546,0.71094 -0.98005,0.46857 -2.16969,1.1651 -3.541021,2.0957 -1.398346,0.94895 -2.962952,1.81738 -4.33789,2.44141 -1.374939,0.62403 -2.606514,0.98828 -3.125,0.98828 -0.77865,0 -1.491052,0.16504 -2.048828,0.46484 -0.557777,0.29981 -1.015625,0.78124 -1.015625,1.41407 0,0.56895 0.268961,1.08262 0.695312,1.39062 0.426351,0.308 0.965992,0.44595 1.578125,0.49219 1.224266,0.0925 2.785195,-0.18975 4.46875,-0.7207 3.36711,-1.06192 7.194577,-3.12293 9.259767,-5.61133 0.79774,-0.96122 1.26322,-1.67911 1.42187,-2.31446 0.0793,-0.31767 0.0791,-0.66962 -0.13086,-0.95507 -0.20993,-0.28546 -0.55387,-0.38824 -0.86914,-0.39649 z m 0.0625,0.98828 c -0.0308,-0.0418 0.006,-0.036 -0.0332,0.1211 -0.0785,0.31416 -0.46581,1.00837 -1.2207,1.91797 -1.84373,2.22155 -5.576668,4.28313 -8.791018,5.29687 -1.607175,0.50687 -3.092322,0.75128 -4.091797,0.67578 -0.499737,-0.0378 -0.866478,-0.15885 -1.068359,-0.30468 -0.201882,-0.14584 -0.28125,-0.27975 -0.28125,-0.58008 0,-0.12544 0.116277,-0.33325 0.488281,-0.53321 0.372004,-0.19995 0.944112,-0.3457 1.576172,-0.3457 0.892213,0 2.106721,-0.42804 3.539062,-1.07812 1.432342,-0.65008 3.036055,-1.53926 4.486328,-2.52344 1.340791,-0.90988 2.494931,-1.58391 3.410161,-2.02149 0.91522,-0.43757 1.61678,-0.62064 1.89843,-0.61328 0.14083,0.004 0.11867,0.0301 0.0879,-0.0117 z m 61.65235,41.0918 c -0.68734,0 -1.23512,0.0482 -1.67774,0.36328 -0.22131,0.15753 -0.39498,0.4072 -0.45898,0.67969 -0.064,0.27249 -0.0358,0.55045 0.041,0.83984 0.30708,1.15757 1.40372,2.72207 3.4004,5.33985 1.22966,1.61218 2.28787,2.78966 3.14843,3.56054 0.43028,0.38544 0.80886,0.67074 1.15821,0.85938 0.34934,0.18864 0.68546,0.31677 1.06836,0.20898 0.19144,-0.0539 0.37302,-0.18936 0.48046,-0.35351 0.10745,-0.16415 0.1537,-0.34176 0.17188,-0.52149 0.0364,-0.35946 -0.0305,-0.75383 -0.16797,-1.23632 -0.27495,-0.965 -0.86275,-2.27542 -1.81445,-3.96876 -0.86904,-1.54623 -1.86374,-2.94827 -2.78516,-3.98242 -0.46071,-0.51707 -0.9018,-0.94366 -1.31641,-1.2539 -0.4146,-0.31025 -0.79134,-0.53516 -1.24804,-0.53516 z m 0,1 c 0.0422,0 0.31652,0.0861 0.65039,0.33594 0.33386,0.24983 0.73811,0.63474 1.16797,1.11719 0.85972,0.9649 1.82453,2.31984 2.66015,3.80664 0.9291,1.65311 1.4884,2.9268 1.72461,3.75586 0.11597,0.40702 0.14506,0.70111 0.13281,0.84375 -0.0218,-0.007 -0.062,0.003 -0.24804,-0.0977 -0.24042,-0.12982 -0.57403,-0.37082 -0.9668,-0.72266 -0.78554,-0.70368 -1.81546,-1.84521 -3.01953,-3.42382 -1.98202,-2.59857 -3.0341,-4.24266 -3.23242,-4.99024 -0.0496,-0.18689 -0.0454,-0.30174 -0.0332,-0.35352 0.0122,-0.0518 0.0149,-0.0571 0.0664,-0.0937 0.10307,-0.0734 0.48753,-0.17774 1.09766,-0.17774 z m 6.4082,0.37891 c -0.58383,0 -1.11637,0.0896 -1.45898,0.51367 -0.34262,0.42406 -0.31038,0.99686 -0.11329,1.60937 0.3942,1.22503 1.50805,2.99969 3.4668,5.82618 1.702,2.45599 3.20623,4.15635 4.39649,4.98437 0.59512,0.41401 1.15113,0.68116 1.73047,0.47852 0.28966,-0.10133 0.5187,-0.34428 0.63867,-0.61914 0.11997,-0.27486 0.16211,-0.58491 0.16211,-0.94336 0,-0.38874 -0.13917,-0.76093 -0.34375,-1.22657 -0.20459,-0.46563 -0.48928,-1.00302 -0.83203,-1.58984 -0.68551,-1.17365 -1.60365,-2.54438 -2.56641,-3.85742 -0.96276,-1.31304 -1.9679,-2.56511 -2.83203,-3.50391 -0.43207,-0.4694 -0.82762,-0.86071 -1.17969,-1.14844 -0.35207,-0.28772 -0.60932,-0.52343 -1.06836,-0.52343 z m 0,1 c -0.11543,0 0.14462,0.0611 0.43555,0.29883 0.29092,0.23775 0.66366,0.60262 1.07617,1.05078 0.82502,0.8963 1.81588,2.128 2.76172,3.41796 0.94584,1.28997 1.84972,2.63947 2.50976,3.76954 0.33003,0.56503 0.59859,1.07698 0.7793,1.48828 0.18071,0.41129 0.25977,0.74434 0.25977,0.82422 0,0.27076 -0.0401,0.45583 -0.0781,0.54296 -0.038,0.0871 -0.0434,0.0722 -0.0547,0.0762 -0.0225,0.008 -0.34011,-0.016 -0.82812,-0.35547 -0.97602,-0.67898 -2.47874,-2.33063 -4.14453,-4.73438 -1.94583,-2.80783 -3.03079,-4.61419 -3.33594,-5.5625 -0.15257,-0.47415 -0.0938,-0.63503 -0.0625,-0.67383 0.0313,-0.0388 0.21969,-0.14257 0.68164,-0.14257 z"
       style="color:#000000;font-style:normal;font-variant:normal;font-weight:normal;font-stretch:normal;font-size:medium;line-height:normal;font-family:sans-serif;font-variant-ligatures:normal;font-variant-position:normal;font-variant-caps:normal;font-variant-numeric:normal;font-variant-alternates:normal;font-feature-settings:normal;text-indent:0;text-align:start;text-decoration:none;text-decoration-line:none;text-decoration-style:solid;text-decoration-color:#000000;letter-spacing:normal;word-spacing:normal;text-transform:none;writing-mode:lr-tb;direction:ltr;text-orientation:mixed;dominant-baseline:auto;baseline-shift:baseline;text-anchor:start;white-space:normal;shape-padding:0;clip-rule:nonzero;display:inline;overflow:visible;visibility:visible;opacity:1;isolation:auto;mix-blend-mode:normal;color-interpolation:sRGB;color-interpolation-filters:linearRGB;solid-color:#000000;solid-opacity:1;vector-effect:none;fill:#484537;fill-opacity:1;fill-rule:nonzero;stroke:none;stroke-width:1;stroke-linecap:butt;stroke-linejoin:miter;stroke-miterlimit:4;stroke-dasharray:none;stroke-dashoffset:0;stroke-opacity:1;color-rendering:auto;image-rendering:auto;shape-rendering:auto;text-rendering:auto;enable-background:accumulate" />
    <path
       inkscape:connector-curvature="0"
       id="path4917"
       d="m 179.17645,315.61551 c -1.79152,-1.79152 -6.18792,-8.22489 -6.18792,-9.05495 0,-1.1006 1.08391,-0.19421 3.48276,2.91238 2.53478,3.28261 4.81234,7.10253 4.4505,7.46437 -0.11648,0.11647 -0.90188,-0.47834 -1.74534,-1.3218 z"
       style="opacity:1;fill:#484537;fill-opacity:0;stroke:#ffffff;stroke-width:1.00157475;stroke-miterlimit:4;stroke-dasharray:none;stroke-dashoffset:0;stroke-opacity:1;paint-order:normal" />
    <path
       inkscape:connector-curvature="0"
       id="path4925"
       d="m 180.07369,317.86908 c -1.23834,-0.62215 -2.90698,-2.44221 -5.03244,-5.48912 -2.15607,-3.0908 -3.18228,-4.90827 -3.40201,-6.02514 -0.16321,-0.82957 0.21543,-1.40946 1.03083,-1.57874 0.8595,-0.17843 1.19392,-0.021 2.31552,1.0901 2.07134,2.05192 5.32265,6.5723 6.55412,9.11235 0.47658,0.98301 0.59385,1.49375 0.47408,2.06475 -0.21788,1.03879 -0.92071,1.33795 -1.9401,0.8258 z m 1.2209,-0.60851 c 0.31493,-0.31493 0.22992,-0.7981 -0.33966,-1.93041 -1.56244,-3.10605 -6.03945,-9.05828 -7.2213,-9.60078 -0.58201,-0.26716 -1.13695,-0.0949 -1.21495,0.37711 -0.095,0.57491 -0.0515,0.76703 0.3491,1.54126 0.95132,1.83863 3.70777,5.80255 5.38913,7.74986 0.59815,0.69276 1.57555,1.5815 2.07498,1.88675 0.3737,0.22841 0.71904,0.21987 0.9627,-0.0238 z"
       style="opacity:1;fill:#484537;fill-opacity:0;stroke:#3d3d3d;stroke-width:0.37795272;stroke-miterlimit:4;stroke-dasharray:none;stroke-dashoffset:0;stroke-opacity:1;paint-order:normal" />
    <path
       inkscape:connector-curvature="0"
       id="path4927"
       d=""
       style="opacity:1;fill:#484537;fill-opacity:0;stroke:#3d3d3d;stroke-width:0.37795272;stroke-miterlimit:4;stroke-dasharray:none;stroke-dashoffset:0;stroke-opacity:1;paint-order:normal" />
    <path
       inkscape:connector-curvature="0"
       id="path4929"
       d="m 172.58248,314.96441 c -1.16276,-0.61041 -2.6903,-2.21969 -4.93427,-5.19829 -1.4037,-1.86324 -2.07388,-2.8704 -2.5195,-3.78633 -0.31339,-0.64414 -0.3461,-0.76233 -0.3461,-1.25046 0,-0.65192 0.13105,-0.87462 0.67498,-1.14698 0.28166,-0.14103 0.52079,-0.1912 1.02664,-0.21538 0.60117,-0.0288 0.6965,-0.0134 1.07864,0.17356 0.52895,0.25879 1.65834,1.32659 2.44694,2.3135 1.63251,2.04304 3.38861,5.21429 3.97293,7.17454 0.17545,0.58857 0.20988,1.30423 0.0778,1.61693 -0.20096,0.47573 -0.89435,0.62534 -1.47805,0.31891 z m 0.41825,-1.94192 c -0.44123,-1.37444 -1.91972,-4.13907 -3.0642,-5.72976 -1.06712,-1.48317 -2.11557,-2.57999 -2.76824,-2.89594 -0.3069,-0.14857 -0.3805,-0.15577 -0.83038,-0.0812 -0.65219,0.10807 -0.74873,0.20562 -0.62214,0.62864 0.2343,0.78294 1.12968,2.19587 2.81806,4.44691 1.79456,2.39262 3.37917,4.10836 4.26057,4.61312 l 0.38807,0.22224 0.0225,-0.24879 c 0.0124,-0.13684 -0.0795,-0.56668 -0.20426,-0.9552 z"
       style="opacity:1;fill:#484537;fill-opacity:0;stroke:#3d3d3d;stroke-width:0.37795272;stroke-miterlimit:4;stroke-dasharray:none;stroke-dashoffset:0;stroke-opacity:1;paint-order:normal" />
    <path
       inkscape:connector-curvature="0"
       id="path4933"
       d="m 170.97265,190.70418 c -1.02226,-0.94208 -2.70985,-3.84631 -4.54534,-7.82224 -1.29365,-2.80223 -2.68162,-5.13676 -3.69633,-6.21715 -0.48595,-0.5174 -0.60772,-0.58999 -1.12258,-0.66916 -1.16548,-0.1792 -1.25756,-0.84228 -0.27953,-2.0129 0.53233,-0.63716 0.62709,-1.09611 0.56054,-2.71484 -0.0849,-2.06637 -0.44881,-3.99704 -1.83421,-9.73251 -0.701,-2.90209 -1.39809,-6.27576 -1.64894,-7.98023 -0.18217,-1.23781 -0.19013,-4.51772 -0.0124,-5.10158 0.32215,-1.05819 1.00079,-1.63383 1.92507,-1.63291 1.49626,0.001 2.13821,0.54947 2.79756,2.38809 0.57607,1.60638 0.9055,3.6752 1.30013,8.16472 0.5312,6.04339 1.33724,10.36835 2.0963,11.24817 0.92016,1.06655 4.09841,0.12667 11.58261,-3.42524 4.48552,-2.12877 6.74225,-3.57981 7.32742,-4.7114 0.42497,-0.8218 0.405,-1.14876 -0.76007,-12.4452 -0.47823,-4.63687 -0.60433,-6.23605 -0.6147,-7.79572 -0.0143,-2.15221 0.0729,-2.54639 0.64696,-2.92249 0.61095,-0.40032 2.33244,0.12449 3.0638,0.93402 0.79007,0.87452 0.9246,1.78042 0.57092,3.84459 -0.39607,2.31165 -0.21685,5.06603 0.58889,9.05026 0.83671,4.13734 2.28066,8.55704 3.18154,9.73815 0.14617,0.19164 0.48106,0.44367 0.7442,0.56007 0.76813,0.33978 1.00413,1.18439 0.74321,2.65987 -0.128,0.72383 -0.1375,1.10017 -0.0482,1.90916 0.21211,1.92161 1.16368,5.10302 2.42689,8.11392 1.32299,3.15339 1.89733,4.9141 2.11992,6.49894 0.13308,0.94751 0.0197,1.52756 -0.38007,1.94486 -0.39106,0.40817 -1.0451,0.42006 -1.82162,0.0331 -0.73003,-0.36379 -0.9884,-0.69557 -1.72256,-2.21199 -0.85951,-1.77532 -1.34262,-3.02675 -2.54688,-6.59731 -1.16489,-3.45384 -1.89631,-5.33226 -2.66042,-6.83241 -0.72163,-1.41678 -0.78874,-1.4777 -1.49105,-1.35346 -1.64287,0.29063 -5.06878,1.68871 -9.20908,3.75814 -4.65939,2.32888 -6.63908,3.50154 -7.83117,4.63877 -0.97012,0.92548 -1.18195,1.42456 -1.18326,2.78777 -0.002,2.44934 0.90658,5.47315 2.91278,9.69008 0.59669,1.25421 1.21731,2.61365 1.37915,3.02097 0.26474,0.66629 0.27942,0.76737 0.1463,1.00761 -0.22539,0.40677 -0.78735,0.6379 -1.55139,0.63809 -0.63533,1e-4 -0.68728,-0.0201 -1.15441,-0.45061 z m 1.63364,-0.48786 c 0.23384,-0.0677 0.2258,-0.0963 -0.43739,-1.55388 -0.37158,-0.81669 -0.96036,-2.08151 -1.30839,-2.8107 -1.61855,-3.39115 -2.50319,-6.52591 -2.51583,-8.91491 -0.007,-1.33001 -0.007,-1.33208 0.38965,-2.13397 0.87666,-1.77379 2.74241,-3.05104 9.09606,-6.22694 4.67282,-2.33574 8.30054,-3.7745 9.84317,-3.90383 0.65749,-0.0551 0.74122,-0.0381 1.03742,0.21117 0.75221,0.63294 2.1051,3.73435 3.74798,8.59199 1.57942,4.66999 2.70079,7.30996 3.40354,8.0127 0.37251,0.37251 1.15351,0.62878 1.28485,0.4216 0.38777,-0.61171 -0.34463,-3.39049 -1.86521,-7.07674 -1.83927,-4.45886 -2.63269,-7.25981 -2.64726,-9.34542 -0.005,-0.67086 0.0334,-1.49006 0.0846,-1.82044 0.0512,-0.33038 0.0606,-0.77357 0.021,-0.98485 -0.0593,-0.31631 -0.12701,-0.39514 -0.38317,-0.44637 -0.18,-0.036 -0.49542,-0.26218 -0.74847,-0.53671 -1.72134,-1.86744 -4.16377,-11.02924 -4.40482,-16.52295 -0.0552,-1.25799 -0.0291,-1.69307 0.17068,-2.84717 0.28821,-1.66487 0.26648,-2.77487 -0.0631,-3.21963 -0.46429,-0.62665 -1.90683,-1.28545 -2.1907,-1.00048 -0.0962,0.0966 -0.12849,0.7025 -0.12111,2.27368 0.009,1.85378 0.11409,3.15523 0.78317,9.67256 0.4252,4.14181 0.77864,8.07993 0.78541,8.75137 0.0119,1.17649 -3.2e-4,1.24646 -0.33515,1.92777 -0.46734,0.95087 -1.53615,1.93891 -3.10917,2.87419 -1.329,0.7902 -4.53415,2.39409 -7.09676,3.55131 -6.95388,3.14021 -9.51841,3.53489 -10.49846,1.61571 -0.801,-1.56857 -1.52548,-5.65972 -2.01908,-11.40191 -0.35407,-4.11894 -0.6711,-6.14029 -1.22574,-7.81505 -0.45889,-1.38566 -0.98087,-1.88715 -1.96646,-1.88925 -1.47221,-0.003 -1.59506,3.29854 -0.34883,9.37558 0.20455,0.99749 0.70008,3.17389 1.10118,4.83645 1.35552,5.61872 1.73424,7.75948 1.74504,9.86398 0.008,1.65101 -0.0839,2.01347 -0.69193,2.71603 -0.48574,0.56122 -0.51054,0.67803 -0.14398,0.67803 0.14874,0 0.39996,0.067 0.55828,0.14886 1.0475,0.54168 3.10002,3.67928 4.69011,7.16958 1.55826,3.42039 3.11964,6.21641 4.06197,7.27388 0.52489,0.58901 0.71506,0.65902 1.31689,0.48476 z"
       style="opacity:1;fill:#484537;fill-opacity:0;stroke:#3d3d3d;stroke-width:0.37795275;stroke-miterlimit:4;stroke-dasharray:none;stroke-dashoffset:0;stroke-opacity:1;paint-order:normal" />
    <path
       inkscape:connector-curvature="0"
       id="path4935"
       d=""
       style="opacity:1;fill:#484537;fill-opacity:0;stroke:#3d3d3d;stroke-width:0.37795275;stroke-miterlimit:4;stroke-dasharray:none;stroke-dashoffset:0;stroke-opacity:1;paint-order:normal" />
    <path
       inkscape:connector-curvature="0"
       id="path4937"
       d="m 171.61571,189.7061 c -0.8301,-0.8301 -2.33463,-3.43916 -3.90463,-6.77113 -1.19238,-2.53057 -1.91871,-3.86285 -2.97792,-5.46231 -0.90963,-1.37359 -1.84423,-2.37879 -2.32358,-2.49909 -0.34179,-0.0858 -0.34168,-0.0979 0.005,-0.50844 0.4092,-0.48525 0.53927,-0.86653 0.6204,-1.81856 0.1594,-1.8707 -0.22804,-4.35244 -1.59584,-10.22204 -1.68907,-7.24823 -1.99351,-9.00689 -2.00357,-11.57402 -0.009,-2.41995 0.25762,-3.09303 1.16026,-2.92369 1.38355,0.25956 2.00596,2.41643 2.64949,9.18148 0.56927,5.98443 1.11697,9.30691 1.85937,11.27933 0.30614,0.81335 0.95378,1.49089 1.58943,1.6628 1.01028,0.27324 2.79413,-0.0269 5.03805,-0.84773 3.07475,-1.12472 10.17585,-4.50705 12.03805,-5.73386 1.78023,-1.17281 2.83865,-2.47281 3.01969,-3.70893 0.0867,-0.59229 -0.11285,-3.09664 -0.79042,-9.91701 -0.28976,-2.91677 -0.57573,-5.91869 -0.63548,-6.67094 -0.10294,-1.29605 -0.15381,-4.94311 -0.0689,-4.94311 0.0218,0 0.23195,0.0678 0.46693,0.15074 0.66,0.23286 1.26255,0.67868 1.41936,1.05017 0.18148,0.42993 0.155,1.71756 -0.0626,3.04167 -0.36485,2.22061 -0.0454,5.58716 0.96128,10.12914 1.20124,5.41999 2.79996,9.2851 4.05573,9.80526 0.17145,0.071 0.33571,0.22082 0.36502,0.3329 0.0293,0.11207 0.007,0.74057 -0.0493,1.39666 -0.23281,2.70637 0.30222,4.93336 2.57177,10.70467 1.36886,3.48089 1.99626,5.5265 2.00295,6.53046 0.003,0.42484 -0.22439,0.45607 -0.75099,0.10323 -0.72206,-0.4838 -1.84845,-2.98854 -3.47506,-7.72747 -1.8316,-5.33611 -2.98646,-8.01866 -3.83708,-8.91284 -0.3525,-0.37055 -0.43625,-0.4067 -0.94247,-0.4067 -1.5418,0 -4.86037,1.26363 -10.03065,3.81943 -6.44442,3.18564 -8.57627,4.64411 -9.48428,6.48854 -0.41011,0.83305 -0.50001,1.66504 -0.33936,3.1405 0.30651,2.81514 0.9849,4.8688 3.1388,9.50208 0.62057,1.33491 1.10327,2.49234 1.07268,2.57206 -0.0943,0.2458 -0.35622,0.16215 -0.76162,-0.24325 z"
       style="opacity:1;fill:#ff6600;fill-opacity:0;stroke:#3d3d3d;stroke-width:0.37795275;stroke-miterlimit:4;stroke-dasharray:none;stroke-dashoffset:0;stroke-opacity:1;paint-order:normal" />
    <path
       inkscape:connector-curvature="0"
       id="path4939"
       d=""
       style="opacity:1;fill:#ff6600;fill-opacity:0;stroke:#3d3d3d;stroke-width:0.37795275;stroke-miterlimit:4;stroke-dasharray:none;stroke-dashoffset:0;stroke-opacity:1;paint-order:normal" />
    <path
       inkscape:connector-curvature="0"
       id="path4949"
       d="m 171.65533,189.37727 c -0.74799,-0.79607 -2.0592,-3.11668 -3.9697,-7.02566 -2.06856,-4.23238 -3.80278,-6.85012 -4.9714,-7.50411 -0.18117,-0.10139 -0.18012,-0.12078 0.0223,-0.41114 0.35305,-0.50645 0.47267,-0.99369 0.53051,-2.16086 0.0948,-1.91213 -0.22647,-3.84618 -1.77048,-10.65946 -1.63371,-7.20909 -1.8538,-8.59558 -1.78069,-11.2173 0.0566,-2.02749 0.18408,-2.35866 0.85868,-2.2297 0.69505,0.13287 1.26376,1.18678 1.6473,3.05269 0.27152,1.32097 0.45905,2.7656 0.86739,6.68206 0.89893,8.62163 1.61257,11.40281 3.12713,12.18698 1.4348,0.74287 4.33835,0.0311 9.59882,-2.35313 7.60825,-3.44828 9.93229,-4.94376 10.91429,-7.02315 0.44958,-0.95198 0.42767,-1.39562 -0.58143,-11.77314 -0.26376,-2.71259 -0.5234,-5.67179 -0.57697,-6.57599 -0.10899,-1.83986 -0.13359,-3.81831 -0.0475,-3.81831 0.16144,0 1.08498,0.53822 1.2646,0.73699 0.29776,0.32949 0.33142,1.29991 0.1077,3.10559 -0.30001,2.42156 -0.0879,5.16718 0.69745,9.02636 1.20986,5.94552 2.87037,10.25388 4.28364,11.11435 l 0.32514,0.19796 0.005,2.04244 c 0.003,1.54604 0.05,2.24868 0.19157,2.89096 0.30929,1.40316 0.9784,3.5012 1.82941,5.73625 0.44239,1.16188 1.06819,2.82845 1.39067,3.70348 0.61083,1.65748 1.22739,3.88075 1.17497,4.23687 -0.0274,0.1859 -0.069,0.17245 -0.41887,-0.13544 -0.73706,-0.6486 -1.66984,-2.76764 -3.48618,-7.91975 -1.88468,-5.34596 -2.89903,-7.67033 -3.74265,-8.57624 -0.44784,-0.48091 -0.47321,-0.49226 -1.1003,-0.49226 -1.73605,0 -5.06553,1.28851 -10.95816,4.24081 -4.85329,2.43158 -6.79303,3.64 -7.94677,4.95072 -1.2109,1.37566 -1.47776,2.59477 -1.11958,5.11475 0.3782,2.66089 0.88396,4.1127 3.3413,9.59125 0.36139,0.80571 0.63664,1.48535 0.61168,1.51031 -0.025,0.025 -0.16824,-0.0854 -0.31841,-0.24518 z"
       style="opacity:1;fill:#ff6600;fill-opacity:0;stroke:#3d3d3d;stroke-width:0.37795275;stroke-miterlimit:4;stroke-dasharray:none;stroke-dashoffset:0;stroke-opacity:1;paint-order:normal" />
  </g>
</svg>
